<?xml version="1.0" standalone="no"?>
<!DOCTYPE svg PUBLIC "-//W3C//DTD SVG 20010904//EN"
 "http://www.w3.org/TR/2001/REC-SVG-20010904/DTD/svg10.dtd">
<svg version="1.0" xmlns="http://www.w3.org/2000/svg"
 width="512.000000pt" height="512.000000pt" viewBox="0 0 512.000000 512.000000"
 preserveAspectRatio="xMidYMid meet">

<g transform="translate(0.000000,512.000000) scale(0.100000,-0.100000)"
fill="#fff" stroke="none">
<path d="M2055 5105 c-464 -64 -756 -344 -841 -808 -25 -135 -23 -383 5 -557
95 -593 308 -964 646 -1126 141 -68 194 -79 385 -79 175 0 227 9 352 59 193
78 375 261 493 495 121 243 202 587 212 906 11 366 -76 630 -276 838 -214 223
-585 326 -976 272z"/>
<path d="M1310 2595 c-52 -23 -162 -66 -245 -94 -82 -29 -188 -71 -235 -93
-161 -77 -271 -221 -348 -453 -111 -337 -216 -1168 -160 -1270 24 -44 56 -71
118 -98 272 -120 856 -252 1385 -314 245 -28 776 -21 957 13 l27 5 -25 41
c-44 69 -100 189 -128 271 -84 252 -79 555 14 808 173 475 639 809 1128 809
50 0 92 4 92 9 0 15 -91 104 -143 140 -58 40 -147 77 -336 142 -80 28 -184 68
-233 91 l-88 41 -69 -66 c-222 -209 -490 -306 -816 -294 -284 10 -516 105
-727 296 -36 34 -68 61 -70 60 -1 -1 -46 -20 -98 -44z"/>
<path d="M3716 1969 c-409 -47 -741 -338 -843 -739 -122 -480 129 -970 595
-1160 435 -177 951 -4 1201 401 101 164 144 319 144 519 0 150 -19 247 -73
378 -52 124 -117 220 -214 317 -164 164 -368 261 -596 285 -112 11 -114 11
-214 -1z m171 -390 c38 -14 83 -57 99 -96 10 -23 14 -77 14 -178 l0 -145 138
0 c165 0 199 -8 245 -60 77 -84 54 -210 -45 -259 -39 -18 -62 -21 -191 -21
l-147 0 0 -147 c0 -166 -14 -213 -73 -255 -47 -33 -148 -33 -196 1 -58 42 -71
85 -71 254 l0 147 -150 0 c-130 0 -156 3 -190 20 -83 42 -115 148 -69 230 42
74 71 85 252 88 l157 4 0 147 c0 135 2 152 23 191 38 73 129 108 204 79z"/>
</g>
</svg>
