<?xml version="1.0" standalone="no"?>
<!DOCTYPE svg PUBLIC "-//W3C//DTD SVG 20010904//EN"
 "http://www.w3.org/TR/2001/REC-SVG-20010904/DTD/svg10.dtd">
<svg version="1.0" xmlns="http://www.w3.org/2000/svg"
 width="225.000000pt" height="225.000000pt" viewBox="0 0 225.000000 225.000000"
 preserveAspectRatio="xMidYMid meet">

<g transform="translate(0.000000,225.000000) scale(0.100000,-0.100000)"
fill="#fff" stroke="none">
<path d="M1055 2241 c-46 -12 -89 -37 -193 -112 l-96 -69 -191 0 c-245 0 -233
9 -237 -175 l-3 -129 -167 -119 -168 -119 0 -714 c0 -620 2 -719 15 -744 33
-63 -28 -60 1110 -60 1138 0 1077 -3 1110 60 13 25 15 124 15 744 l0 714 -167
119 -168 119 -3 129 c-4 184 8 175 -237 175 l-191 0 -96 69 c-53 39 -115 79
-138 91 -45 23 -147 34 -195 21z m154 -83 c13 -4 51 -27 84 -51 l60 -42 -111
-3 c-61 -1 -164 -1 -228 0 l-117 3 63 45 c94 65 166 79 249 48z m631 -545 l-1
-378 -290 -240 c-160 -132 -307 -249 -327 -260 -50 -26 -144 -26 -193 0 -20
11 -168 128 -327 260 l-291 240 -1 378 0 377 715 0 715 0 0 -377z m-1500 -135
c0 -171 -1 -180 -17 -166 -10 8 -61 50 -113 93 -52 43 -99 82 -103 86 -8 6
208 168 226 169 4 0 7 -82 7 -182z m1701 99 c61 -44 107 -82 103 -86 -5 -4
-52 -43 -104 -86 -52 -43 -103 -85 -112 -93 -17 -14 -18 -5 -18 167 0 110 4
181 9 179 6 -1 60 -38 122 -81z m-1559 -495 l378 -313 -390 -325 c-215 -178
-392 -324 -395 -324 -3 0 -5 293 -5 651 0 617 1 651 17 638 10 -8 188 -155
395 -327z m1694 -959 c-2 -3 -180 142 -395 321 l-391 325 393 326 392 325 3
-646 c1 -356 0 -649 -2 -651z m-1176 544 c35 -17 63 -22 125 -22 80 0 132 16
190 59 19 14 42 -4 400 -301 209 -173 382 -319 383 -324 2 -5 -410 -9 -973 -9
-551 0 -975 4 -973 9 2 5 174 151 383 324 358 297 381 315 400 301 11 -8 40
-25 65 -37z"/>
<path d="M1050 1825 c-123 -34 -218 -101 -297 -208 -145 -198 -92 -465 114
-575 109 -58 328 -80 456 -47 123 32 251 123 245 174 -5 40 -33 37 -86 -9 -86
-76 -182 -110 -312 -110 -145 1 -270 40 -337 107 -60 60 -86 124 -87 213 -1
66 3 84 33 143 84 172 268 273 446 245 33 -5 79 -20 101 -33 154 -90 191 -313
74 -436 -35 -37 -42 -40 -82 -37 -53 4 -53 -4 -8 212 32 153 32 160 15 173
-27 19 -34 17 -52 -16 l-17 -29 -38 26 c-104 68 -234 19 -306 -115 -57 -108
-56 -207 4 -273 61 -68 149 -77 242 -25 l45 25 24 -25 c51 -51 154 -41 218 22
19 19 48 58 63 86 24 47 27 62 27 157 0 94 -3 111 -28 161 -33 69 -109 142
-182 175 -70 32 -196 41 -275 19z m132 -272 c11 -10 28 -34 39 -54 16 -33 17
-41 5 -87 -43 -163 -236 -228 -277 -94 -22 75 34 193 115 244 36 22 88 18 118
-9z"/>
</g>
</svg>
