<?xml version="1.0" standalone="no"?>
<!DOCTYPE svg PUBLIC "-//W3C//DTD SVG 20010904//EN"
 "http://www.w3.org/TR/2001/REC-SVG-20010904/DTD/svg10.dtd">
<svg version="1.0" xmlns="http://www.w3.org/2000/svg"
 width="222.000000pt" height="227.000000pt" viewBox="0 0 222.000000 227.000000"
 preserveAspectRatio="xMidYMid meet">

<g transform="translate(0.000000,227.000000) scale(0.100000,-0.100000)"
fill="#fff" stroke="none">
<path d="M952 2240 c-115 -31 -207 -84 -293 -170 -126 -125 -188 -280 -189
-471 l0 -86 -38 -6 c-47 -8 -111 -49 -140 -91 -12 -17 -26 -56 -32 -85 -13
-72 -13 -1070 0 -1142 14 -72 51 -123 113 -154 l51 -25 690 0 c679 0 690 0
733 21 51 25 96 76 112 128 16 56 16 1148 -1 1205 -18 59 -83 120 -144 136
l-50 13 -11 126 c-12 139 -37 221 -94 317 -72 120 -209 228 -349 274 -96 32
-261 37 -358 10z m303 -215 c70 -23 153 -82 198 -141 59 -77 80 -142 85 -266
l4 -108 -431 0 -431 0 0 69 c0 145 37 247 121 336 56 59 143 109 219 125 60
12 173 5 235 -15z m-514 -1178 c64 -43 63 -131 -1 -175 -45 -30 -92 -24 -133
17 -39 38 -41 99 -6 137 45 49 89 55 140 21z m419 8 c32 -17 60 -61 60 -95 0
-53 -57 -110 -110 -110 -30 0 -76 29 -91 57 -20 37 -14 91 13 120 40 44 80 53
128 28z m425 1 c35 -15 65 -59 65 -96 0 -54 -57 -110 -112 -110 -25 0 -65 23
-85 50 -37 47 -16 126 40 154 40 19 49 20 92 2z"/>
</g>
</svg>
