<?xml version="1.0" standalone="no"?>
<!DOCTYPE svg PUBLIC "-//W3C//DTD SVG 20010904//EN"
 "http://www.w3.org/TR/2001/REC-SVG-20010904/DTD/svg10.dtd">
<svg version="1.0" xmlns="http://www.w3.org/2000/svg"
 width="225.000000pt" height="225.000000pt" viewBox="0 0 225.000000 225.000000"
 preserveAspectRatio="xMidYMid meet">

<g transform="translate(0.000000,225.000000) scale(0.100000,-0.100000)"
fill="#000000" stroke="none">
<path d="M990 1794 c-98 -21 -234 -92 -312 -163 -58 -54 -128 -142 -144 -184
-3 -10 31 -42 105 -100 l109 -86 27 55 c37 75 114 150 194 188 123 58 280 46
389 -28 l50 -35 93 96 94 95 -40 35 c-55 49 -185 110 -273 128 -89 18 -204 18
-292 -1z"/>
<path d="M1140 1115 l0 -125 185 0 c176 0 185 -1 185 -19 0 -40 -41 -114 -90
-161 -45 -43 -48 -49 -33 -62 12 -9 15 -9 9 0 -4 6 -3 12 2 12 13 0 38 -31 32
-39 -3 -3 4 -6 15 -6 11 0 20 -7 20 -15 0 -8 8 -14 17 -12 16 3 33 -14 33 -33
0 -5 9 -10 20 -10 11 0 20 -6 20 -14 0 -8 10 -15 23 -16 44 -3 134 126 184
262 16 46 22 90 25 211 l5 152 -326 0 -326 0 0 -125z"/>
<path d="M840 825 c13 -14 26 -25 28 -25 3 0 -5 11 -18 25 -13 14 -26 25 -28
25 -3 0 5 -11 18 -25z"/>
<path d="M580 726 c0 -2 8 -10 18 -17 15 -13 16 -12 3 4 -13 16 -21 21 -21 13z"/>
<path d="M1068 703 c7 -3 16 -2 19 1 4 3 -2 6 -13 5 -11 0 -14 -3 -6 -6z"/>
<path d="M1198 703 c7 -3 16 -2 19 1 4 3 -2 6 -13 5 -11 0 -14 -3 -6 -6z"/>
<path d="M650 645 c19 -19 36 -35 39 -35 3 0 -10 16 -29 35 -19 19 -36 35 -39
35 -3 0 10 -16 29 -35z"/>
<path d="M1018 453 c7 -3 16 -2 19 1 4 3 -2 6 -13 5 -11 0 -14 -3 -6 -6z"/>
<path d="M1258 453 c7 -3 16 -2 19 1 4 3 -2 6 -13 5 -11 0 -14 -3 -6 -6z"/>
<path d="M1103 443 c20 -2 54 -2 75 0 20 2 3 4 -38 4 -41 0 -58 -2 -37 -4z"/>
</g>
</svg>
